<svg xmlns="http://www.w3.org/2000/svg" viewBox="0 0 1280 720" width="1280" height="720">
  <defs>
    <linearGradient id="gradient1" x1="0%" y1="0%" x2="100%" y2="100%">
      <stop offset="0%" stop-color="#6366F1" />
      <stop offset="100%" stop-color="#06B6D4" />
    </linearGradient>
    <filter id="cardShadow" x="-15%" y="-15%" width="140%" height="140%">
      <feGaussianBlur in="SourceAlpha" stdDeviation="8" />
      <feOffset dx="0" dy="4" result="offsetBlur" />
      <feFlood flood-color="#000000" flood-opacity="0.08" result="shadowColor" />
      <feComposite in="shadowColor" in2="offsetBlur" operator="in" result="shadow" />
      <feMerge>
        <feMergeNode in="shadow" />
        <feMergeNode in="SourceGraphic" />
      </feMerge>
    </filter>
    <filter id="redShadow" x="-15%" y="-15%" width="140%" height="140%">
      <feGaussianBlur in="SourceAlpha" stdDeviation="10" />
      <feOffset dx="0" dy="5" result="offsetBlur" />
      <feFlood flood-color="#EF4444" flood-opacity="0.15" result="shadowColor" />
      <feComposite in="shadowColor" in2="offsetBlur" operator="in" result="shadow" />
      <feMerge>
        <feMergeNode in="shadow" />
        <feMergeNode in="SourceGraphic" />
      </feMerge>
    </filter>
  </defs>

  
  <rect width="1280" height="720" fill="#FAFBFC" />
  <rect x="0" y="0" width="1280" height="4" fill="url(#gradient1)" />

  
  <text x="60" y="62" font-family="Microsoft YaHei, Arial, sans-serif" font-size="30" font-weight="bold" fill="#1F2937">传统 PPT 制作：效率瓶颈与挑战</text>
  <text x="60" y="95" font-family="Microsoft YaHei, Arial, sans-serif" font-size="15" fill="#6B7280">平均每份演示文稿耗时 4-8 小时，80% 时间用于格式调整而非内容创作</text>
  <rect x="60" y="115" width="1160" height="1" fill="#E5E7EB" />

  
  <g transform="translate(60, 145)">
    
    <g filter="url(#redShadow)">
      <path fill="#FFFFFF" d="M16,0 H249 A16,16 0 0 1 265,16 V204 A16,16 0 0 1 249,220 H16 A16,16 0 0 1 0,204 V16 A16,16 0 0 1 16,0 Z" />
    </g>
    <path fill="#EF4444" d="M3,0 H262 A3,3 0 0 1 265,3 V3 A3,3 0 0 1 262,6 H3 A3,3 0 0 1 0,3 V3 A3,3 0 0 1 3,0 Z" />
    
  <g transform="translate(108.0, 30.0) scale(3.0)" fill="#EF4444">
    <path fill-rule="evenodd" clip-rule="evenodd" d="M8 16C12.4183 16 16 12.4183 16 8C16 3.58172 12.4183 0 8 0C3.58172 0 0 3.58172 0 8C0 12.4183 3.58172 16 8 16ZM7 3V8.41421L10.2929 11.7071L11.7071 10.2929L9 7.58579V3H7Z" />
  </g>
    <text x="132" y="105" font-family="Microsoft YaHei, Arial, sans-serif" font-size="16" font-weight="bold" text-anchor="middle" fill="#1F2937">耗时耗力</text>
    <text x="132" y="150" font-family="Arial, sans-serif" font-size="42" font-weight="bold" text-anchor="middle" fill="#EF4444">4-8h</text>
    <text x="132" y="175" font-family="Microsoft YaHei, Arial, sans-serif" font-size="13" text-anchor="middle" fill="#6B7280">平均制作时间</text>
    <rect x="80" y="190" width="105" height="1" fill="#E5E7EB" />
    <text x="132" y="210" font-family="Microsoft YaHei, Arial, sans-serif" font-size="11" text-anchor="middle" fill="#9CA3AF">效率低下，拖累进度</text>

    
    <g transform="translate(290, 0)">
      <g filter="url(#redShadow)">
        <path fill="#FFFFFF" d="M16,0 H249 A16,16 0 0 1 265,16 V204 A16,16 0 0 1 249,220 H16 A16,16 0 0 1 0,204 V16 A16,16 0 0 1 16,0 Z" />
      </g>
      <path fill="#EF4444" d="M3,0 H262 A3,3 0 0 1 265,3 V3 A3,3 0 0 1 262,6 H3 A3,3 0 0 1 0,3 V3 A3,3 0 0 1 3,0 Z" />
      
  <g transform="translate(108.0, 30.0) scale(3.0)" fill="#EF4444">
    <path fill-rule="evenodd" clip-rule="evenodd" d="M16 8C16 8.33866 15.979 8.67241 15.9381 9H8V11L11 14V15.4185C10.0736 15.7935 9.0609 16 8 16C3.58172 16 0 12.4183 0 8C0 3.58172 3.58172 0 8 0C12.4183 0 16 3.58172 16 8ZM3 9C3.55228 9 4 8.55229 4 8C4 7.44772 3.55228 7 3 7C2.44772 7 2 7.44772 2 8C2 8.55229 2.44772 9 3 9ZM9 3C9 3.55228 8.55229 4 8 4C7.44772 4 7 3.55228 7 3C7 2.44772 7.44772 2 8 2C8.55229 2 9 2.44772 9 3ZM5.17137 5.17158C5.56189 4.78106 5.56189 4.14789 5.17137 3.75737C4.78084 3.36685 4.14768 3.36685 3.75716 3.75737C3.36663 4.14789 3.36663 4.78106 3.75716 5.17158C4.14768 5.56211 4.78084 5.56211 5.17137 5.17158ZM12.2428 5.17161C11.8522 5.56214 11.2191 5.56214 10.8285 5.17161C10.438 4.78109 10.438 4.14792 10.8285 3.7574C11.2191 3.36688 11.8522 3.36688 12.2428 3.7574C12.6333 4.14792 12.6333 4.78109 12.2428 5.17161ZM5.17146 10.8284C4.78094 10.4379 4.14777 10.4379 3.75725 10.8284C3.36672 11.2189 3.36672 11.8521 3.75725 12.2426C4.14777 12.6331 4.78094 12.6331 5.17146 12.2426C5.56199 11.8521 5.56199 11.2189 5.17146 10.8284Z" />
  </g>
      <text x="132" y="105" font-family="Microsoft YaHei, Arial, sans-serif" font-size="16" font-weight="bold" text-anchor="middle" fill="#1F2937">设计门槛高</text>
      <text x="132" y="150" font-family="Arial, sans-serif" font-size="42" font-weight="bold" text-anchor="middle" fill="#EF4444">70%</text>
      <text x="132" y="175" font-family="Microsoft YaHei, Arial, sans-serif" font-size="13" text-anchor="middle" fill="#6B7280">用户缺乏设计能力</text>
      <rect x="80" y="190" width="105" height="1" fill="#E5E7EB" />
      <text x="132" y="210" font-family="Microsoft YaHei, Arial, sans-serif" font-size="11" text-anchor="middle" fill="#9CA3AF">效果参差不齐</text>
    </g>

    
    <g transform="translate(580, 0)">
      <g filter="url(#redShadow)">
        <path fill="#FFFFFF" d="M16,0 H249 A16,16 0 0 1 265,16 V204 A16,16 0 0 1 249,220 H16 A16,16 0 0 1 0,204 V16 A16,16 0 0 1 16,0 Z" />
      </g>
      <path fill="#EF4444" d="M3,0 H262 A3,3 0 0 1 265,3 V3 A3,3 0 0 1 262,6 H3 A3,3 0 0 1 0,3 V3 A3,3 0 0 1 3,0 Z" />
      
  <g transform="translate(108.0, 30.0) scale(3.0)" fill="#EF4444">
    <path d="M10 8H9V4.8198L5.15728 4.05126C4.98683 4.01717 4.81343 4 4.63961 4C3.18179 4 2 5.18179 2 6.63961V9H0V6.63961C0 4.07722 2.07722 2 4.63961 2C4.94514 2 5.24992 2.03018 5.54951 2.0901L9 2.7802V0H10L14 4L10 8Z" />
    <path d="M16 7V9.36039C16 11.9228 13.9228 14 11.3604 14C11.0549 14 10.7501 13.9698 10.4505 13.9099L7 13.2198V16H6L2 12L6 8H7V11.1802L10.8427 11.9487C11.0132 11.9828 11.1866 12 11.3604 12C12.8182 12 14 10.8182 14 9.36039V7H16Z" />
  </g>
      <text x="132" y="105" font-family="Microsoft YaHei, Arial, sans-serif" font-size="16" font-weight="bold" text-anchor="middle" fill="#1F2937">重复劳动</text>
      <text x="132" y="150" font-family="Arial, sans-serif" font-size="42" font-weight="bold" text-anchor="middle" fill="#EF4444">80%</text>
      <text x="132" y="175" font-family="Microsoft YaHei, Arial, sans-serif" font-size="13" text-anchor="middle" fill="#6B7280">时间用于格式调整</text>
      <rect x="80" y="190" width="105" height="1" fill="#E5E7EB" />
      <text x="132" y="210" font-family="Microsoft YaHei, Arial, sans-serif" font-size="11" text-anchor="middle" fill="#9CA3AF">每次从头开始</text>
    </g>

    
    <g transform="translate(870, 0)">
      <g filter="url(#redShadow)">
        <path fill="#FFFFFF" d="M16,0 H249 A16,16 0 0 1 265,16 V204 A16,16 0 0 1 249,220 H16 A16,16 0 0 1 0,204 V16 A16,16 0 0 1 16,0 Z" />
      </g>
      <path fill="#EF4444" d="M3,0 H262 A3,3 0 0 1 265,3 V3 A3,3 0 0 1 262,6 H3 A3,3 0 0 1 0,3 V3 A3,3 0 0 1 3,0 Z" />
      
  <g transform="translate(108.0, 30.0) scale(3.0)" fill="#EF4444">
    <path d="M16 1H12V15H16V1Z" />
    <path d="M6 5H10V15H6V5Z" />
    <path d="M0 9H4V15H0V9Z" />
  </g>
      <text x="132" y="105" font-family="Microsoft YaHei, Arial, sans-serif" font-size="16" font-weight="bold" text-anchor="middle" fill="#1F2937">可视化复杂</text>
      <text x="132" y="150" font-family="Arial, sans-serif" font-size="42" font-weight="bold" text-anchor="middle" fill="#EF4444">60%</text>
      <text x="132" y="175" font-family="Microsoft YaHei, Arial, sans-serif" font-size="13" text-anchor="middle" fill="#6B7280">图表制作失误率</text>
      <rect x="80" y="190" width="105" height="1" fill="#E5E7EB" />
      <text x="132" y="210" font-family="Microsoft YaHei, Arial, sans-serif" font-size="11" text-anchor="middle" fill="#9CA3AF">一致性难保证</text>
    </g>
  </g>

  
  <g filter="url(#cardShadow)">
    <path fill="#FFFFFF" d="M76,400 H1204 A16,16 0 0 1 1220,416 V474 A16,16 0 0 1 1204,490 H76 A16,16 0 0 1 60,474 V416 A16,16 0 0 1 76,400 Z" />
  </g>
  
  <g transform="translate(85.0, 425.0) scale(2.25)" fill="#F59E0B">
    <path fill-rule="evenodd" clip-rule="evenodd" d="M5 11.5V14.5L6.5 16H9.5L11 14.5V11.5L12.2396 10.2604C13.3668 9.13324 14 7.60141 14 6.00736C14 2.69365 11.3137 0 8 0C4.68629 0 2 2.69365 2 6.00736C2 7.60141 2.63324 9.13324 3.76041 10.2604L5 11.5ZM7 9.87398V6H9V9.87398C10.7252 9.42994 12 7.86384 12 6C12 3.79086 10.2091 2 8 2C5.79086 2 4 3.79086 4 6C4 7.86384 5.27477 9.42994 7 9.87398Z" />
  </g>
  <text x="135" y="440" font-family="Microsoft YaHei, Arial, sans-serif" font-size="17" font-weight="bold" fill="#1F2937">核心问题：缺乏系统化的解决方案，导致效率低、质量不稳定</text>
  <text x="135" y="468" font-family="Microsoft YaHei, Arial, sans-serif" font-size="14" fill="#6B7280">传统工具无法解决根本问题，需要一种全新的 AI 驱动方法来变革 PPT 制作流程</text>

  
  <g transform="translate(640, 520)">
    
  <g transform="translate(-16.0, 0.0) scale(2.0)" fill="#6366F1">
    <path d="M10 8L14 8V10L8 16L2 10V8H6V0L10 4.76995e-08V8Z" />
  </g>
    <text x="0" y="60" font-family="Microsoft YaHei, Arial, sans-serif" font-size="20" font-weight="bold" text-anchor="middle" fill="#6366F1">是否有更好的解决方案？</text>
  </g>

  
  <rect x="60" y="660" width="1160" height="1" fill="#E5E7EB" />
  <text x="60" y="690" font-family="Microsoft YaHei, Arial, sans-serif" font-size="12" fill="#9CA3AF">PPT Master - 痛点分析</text>
  <text x="640" y="690" font-family="Arial, sans-serif" font-size="12" text-anchor="middle" fill="#9CA3AF">02 / 10</text>
  <text x="1220" y="690" font-family="Arial, sans-serif" font-size="12" text-anchor="end" fill="#9CA3AF">github.com/hugohe3/ppt-master</text>
</svg>