<svg xmlns="http://www.w3.org/2000/svg" viewBox="0 0 1280 720" width="1280" height="720">
  <defs>
    <linearGradient id="gradient1" x1="0%" y1="0%" x2="100%" y2="100%">
      <stop offset="0%" stop-color="#6366F1" />
      <stop offset="100%" stop-color="#06B6D4" />
    </linearGradient>
    <filter id="cardShadow" x="-15%" y="-15%" width="140%" height="140%">
      <feGaussianBlur in="SourceAlpha" stdDeviation="8" />
      <feOffset dx="0" dy="4" result="offsetBlur" />
      <feFlood flood-color="#000000" flood-opacity="0.08" result="shadowColor" />
      <feComposite in="shadowColor" in2="offsetBlur" operator="in" result="shadow" />
      <feMerge>
        <feMergeNode in="shadow" />
        <feMergeNode in="SourceGraphic" />
      </feMerge>
    </filter>
    <filter id="accentShadow" x="-15%" y="-15%" width="140%" height="140%">
      <feGaussianBlur in="SourceAlpha" stdDeviation="10" />
      <feOffset dx="0" dy="6" result="offsetBlur" />
      <feFlood flood-color="#6366F1" flood-opacity="0.18" result="shadowColor" />
      <feComposite in="shadowColor" in2="offsetBlur" operator="in" result="shadow" />
      <feMerge>
        <feMergeNode in="shadow" />
        <feMergeNode in="SourceGraphic" />
      </feMerge>
    </filter>
  </defs>

  
  <rect width="1280" height="720" fill="#FAFBFC" />
  <rect x="0" y="0" width="1280" height="4" fill="url(#gradient1)" />

  
  <text x="60" y="62" font-family="Microsoft YaHei, Arial, sans-serif" font-size="30" font-weight="bold" fill="#1F2937">快速开始：三步即可使用</text>
  <text x="60" y="95" font-family="Microsoft YaHei, Arial, sans-serif" font-size="15" fill="#6B7280">无需复杂配置，克隆仓库后即可开始创作</text>
  <rect x="60" y="115" width="1160" height="1" fill="#E5E7EB" />

  
  <g transform="translate(60, 145)">
    
    <g filter="url(#cardShadow)">
      <path fill="#FFFFFF" d="M16,0 H334 A16,16 0 0 1 350,16 V244 A16,16 0 0 1 334,260 H16 A16,16 0 0 1 0,244 V16 A16,16 0 0 1 16,0 Z" />
    </g>
    <path fill="#6366F1" d="M2.50,0 H347.50 A2.50,2.50 0 0 1 350,2.50 V2.50 A2.50,2.50 0 0 1 347.50,5 H2.50 A2.50,2.50 0 0 1 0,2.50 V2.50 A2.50,2.50 0 0 1 2.50,0 Z" />
    <circle cx="175" cy="48" r="28" fill="#6366F1" />
    <text x="175" y="57" font-family="Arial, sans-serif" font-size="22" font-weight="bold" text-anchor="middle" fill="#FFFFFF">1</text>
    <text x="175" y="100" font-family="Microsoft YaHei, Arial, sans-serif" font-size="17" font-weight="bold" text-anchor="middle" fill="#1F2937">克隆仓库</text>

    <path fill="#1F2937" d="M28,120 H322 A8,8 0 0 1 330,128 V160 A8,8 0 0 1 322,168 H28 A8,8 0 0 1 20,160 V128 A8,8 0 0 1 28,120 Z" />
    <text x="30" y="142" font-family="monospace, Arial" font-size="11" fill="#10B981">git clone</text>
    <text x="30" y="158" font-family="monospace, Arial" font-size="9" fill="#F59E0B">https://github.com/hugohe3/ppt-master</text>

    <text x="175" y="195" font-family="Microsoft YaHei, Arial, sans-serif" font-size="12" text-anchor="middle" fill="#6B7280">或在编辑器中直接 Clone</text>

    <path fill="#D1FAE5" d="M26,212 H324 A6,6 0 0 1 330,218 V234 A6,6 0 0 1 324,240 H26 A6,6 0 0 1 20,234 V218 A6,6 0 0 1 26,212 Z" />
    
  <g transform="translate(30.0, 218.0)" fill="#10B981">
    <path d="M8 3L10.5 2.5L11 0H12L12.5 2.5L15 3V4L12.5 4.5L12 7H11L10.5 4.5L8 4V3Z" />
    <path d="M0 11V10L4 9L5 5H6L7 9L11 10V11L7 12L6 16H5L4 12L0 11Z" />
    <path d="M1 2L2.5 0.5L4 2L2.5 3.5L1 2Z" />
    <path d="M15 14L13 12L11 14L13 16L15 14Z" />
    <path d="M15 10C15.5523 10 16 9.55229 16 9C16 8.44771 15.5523 8 15 8C14.4477 8 14 8.44771 14 9C14 9.55229 14.4477 10 15 10Z" />
  </g>
    <text x="52" y="231" font-family="Microsoft YaHei, Arial, sans-serif" font-size="10" fill="#10B981">推荐: Antigravity / Cursor / VS Code</text>

    
    <line x1="360" y1="130" x2="395" y2="130" stroke="#6366F1" stroke-width="2" />
    <polygon points="395,123 410,130 395,137" fill="#6366F1" />

    
    <g transform="translate(405, 0)">
      <g filter="url(#cardShadow)">
        <path fill="#FFFFFF" d="M16,0 H334 A16,16 0 0 1 350,16 V244 A16,16 0 0 1 334,260 H16 A16,16 0 0 1 0,244 V16 A16,16 0 0 1 16,0 Z" />
      </g>
      <path fill="#06B6D4" d="M2.50,0 H347.50 A2.50,2.50 0 0 1 350,2.50 V2.50 A2.50,2.50 0 0 1 347.50,5 H2.50 A2.50,2.50 0 0 1 0,2.50 V2.50 A2.50,2.50 0 0 1 2.50,0 Z" />
      <circle cx="175" cy="48" r="28" fill="#06B6D4" />
      <text x="175" y="57" font-family="Arial, sans-serif" font-size="22" font-weight="bold" text-anchor="middle" fill="#FFFFFF">2</text>
      <text x="175" y="100" font-family="Microsoft YaHei, Arial, sans-serif" font-size="17" font-weight="bold" text-anchor="middle" fill="#1F2937">打开 AI 聊天</text>

      <path fill="#FAFBFC" d="M28,120 H322 A8,8 0 0 1 330,128 V197 A8,8 0 0 1 322,205 H28 A8,8 0 0 1 20,197 V128 A8,8 0 0 1 28,120 Z" />
      <path fill="#06B6D4" d="M34,130 H91 A4,4 0 0 1 95,134 V148 A4,4 0 0 1 91,152 H34 A4,4 0 0 1 30,148 V134 A4,4 0 0 1 34,130 Z" />
      <text x="62" y="145" font-family="Microsoft YaHei, Arial, sans-serif" font-size="10" text-anchor="middle" fill="#FFFFFF">Chat</text>
      <text x="35" y="175" font-family="Microsoft YaHei, Arial, sans-serif" font-size="11" fill="#6B7280">打开 AI 聊天面板...</text>
      <path fill="#FFFFFF" d="M34,182 H306 A4,4 0 0 1 310,186 V196 A4,4 0 0 1 306,200 H34 A4,4 0 0 1 30,196 V186 A4,4 0 0 1 34,182 Z" />
      <text x="40" y="195" font-family="Microsoft YaHei, Arial, sans-serif" font-size="9" fill="#9CA3AF">输入你的需求...</text>

      <text x="175" y="238" font-family="Microsoft YaHei, Arial, sans-serif" font-size="11" text-anchor="middle" fill="#6B7280">Antigravity 免费使用 Opus 4.5</text>
    </g>

    
    <line x1="765" y1="130" x2="800" y2="130" stroke="#6366F1" stroke-width="2" />
    <polygon points="800,123 815,130 800,137" fill="#6366F1" />

    
    <g transform="translate(810, 0)">
      <g filter="url(#cardShadow)">
        <path fill="#FFFFFF" d="M16,0 H334 A16,16 0 0 1 350,16 V244 A16,16 0 0 1 334,260 H16 A16,16 0 0 1 0,244 V16 A16,16 0 0 1 16,0 Z" />
      </g>
      <path fill="#10B981" d="M2.50,0 H347.50 A2.50,2.50 0 0 1 350,2.50 V2.50 A2.50,2.50 0 0 1 347.50,5 H2.50 A2.50,2.50 0 0 1 0,2.50 V2.50 A2.50,2.50 0 0 1 2.50,0 Z" />
      <circle cx="175" cy="48" r="28" fill="#10B981" />
      <text x="175" y="57" font-family="Arial, sans-serif" font-size="22" font-weight="bold" text-anchor="middle" fill="#FFFFFF">3</text>
      <text x="175" y="100" font-family="Microsoft YaHei, Arial, sans-serif" font-size="17" font-weight="bold" text-anchor="middle" fill="#1F2937">开始对话</text>

      <path fill="#FAFBFC" d="M28,120 H322 A8,8 0 0 1 330,128 V197 A8,8 0 0 1 322,205 H28 A8,8 0 0 1 20,197 V128 A8,8 0 0 1 28,120 Z" />
      <path fill="#EEF2FF" d="M116,128 H304 A6,6 0 0 1 310,134 V150 A6,6 0 0 1 304,156 H116 A6,6 0 0 1 110,150 V134 A6,6 0 0 1 116,128 Z" />
      <text x="120" y="146" font-family="Microsoft YaHei, Arial, sans-serif" font-size="9" fill="#1F2937">我需要制作一份 Q3 报告 PPT</text>
      <path fill="#F5F3FF" d="M36,164 H234 A6,6 0 0 1 240,170 V192 A6,6 0 0 1 234,198 H36 A6,6 0 0 1 30,192 V170 A6,6 0 0 1 36,164 Z" />
      
  <g transform="translate(38.0, 170.0) scale(0.875)" fill="#6366F1">
    <path fill-rule="evenodd" clip-rule="evenodd" d="M8 4C5.79086 4 4 5.79086 4 8C4 10.2091 5.79086 12 8 12C10.2091 12 12 10.2091 12 8C12 5.79086 10.2091 4 8 4ZM6 8C6 6.89543 6.89543 6 8 6C9.10457 6 10 6.89543 10 8C10 9.10457 9.10457 10 8 10C6.89543 10 6 9.10457 6 8Z" />
    <path fill-rule="evenodd" clip-rule="evenodd" d="M8 0C3.58172 0 0 3.58172 0 8C0 12.4183 3.58172 16 8 16C12.4183 16 16 12.4183 16 8C16 3.58172 12.4183 0 8 0ZM2 8C2 4.68629 4.68629 2 8 2C11.3137 2 14 4.68629 14 8C14 11.3137 11.3137 14 8 14C4.68629 14 2 11.3137 2 8Z" />
  </g>
      <text x="58" y="180" font-family="Microsoft YaHei, Arial, sans-serif" font-size="8" fill="#6366F1">Strategist: 好的，让我先确认</text>
      <text x="58" y="192" font-family="Microsoft YaHei, Arial, sans-serif" font-size="8" fill="#6366F1">八项设计参数...</text>

      <text x="175" y="238" font-family="Microsoft YaHei, Arial, sans-serif" font-size="11" text-anchor="middle" fill="#6B7280">AI 自动按角色协作工作</text>
    </g>
  </g>

  
  <g transform="translate(60, 430)">
    <g filter="url(#cardShadow)">
      <path fill="#FFFFFF" d="M16,0 H1144 A16,16 0 0 1 1160,16 V104 A16,16 0 0 1 1144,120 H16 A16,16 0 0 1 0,104 V16 A16,16 0 0 1 16,0 Z" />
    </g>
    
  <g transform="translate(20.0, 18.0) scale(1.375)" fill="#1F2937">
    <path d="M0 1H16V13H11L8 16L5 13H0V1Z" />
  </g>
    <text x="50" y="35" font-family="Microsoft YaHei, Arial, sans-serif" font-size="15" font-weight="bold" fill="#1F2937">示例对话</text>
    <rect x="20" y="48" width="1120" height="1" fill="#E5E7EB" />

    <g transform="translate(20, 65)" font-family="Microsoft YaHei, Arial, sans-serif" font-size="13">
      <text x="0" y="0" fill="#06B6D4" font-weight="bold">用户:</text>
      <text x="50" y="0" fill="#1F2937">我有一份市场分析报告，需要做成 PPT</text>

      <text x="0" y="25" fill="#6366F1" font-weight="bold">Strategist:</text>
      <text x="80" y="25" fill="#1F2937">好的！在开始前，我需要确认八项内容：画布格式、页数、设计风格...</text>

      <text x="0" y="48" fill="#9CA3AF" font-size="12">→ AI 会主动提供专业建议，确认后自动进入生成流程</text>
    </g>
  </g>

  
  <g filter="url(#accentShadow)">
    <path fill="url(#gradient1)" d="M72,575 H1208 A12,12 0 0 1 1220,587 V611 A12,12 0 0 1 1208,623 H72 A12,12 0 0 1 60,611 V587 A12,12 0 0 1 72,575 Z" />
  </g>
  
  <g transform="translate(480.0, 587.0) scale(1.375)" fill="#FFFFFF">
    <path fill-rule="evenodd" clip-rule="evenodd" d="M10 16L12 14V10L13.6569 8.34314C15.1571 6.84285 16 4.80802 16 2.68629V0H13.3137C11.192 0 9.15714 0.842855 7.65685 2.34315L6 4H2L0 6L10 16ZM10.5 7C11.3284 7 12 6.32843 12 5.5C12 4.67157 11.3284 4 10.5 4C9.67157 4 9 4.67157 9 5.5C9 6.32843 9.67157 7 10.5 7Z" />
    <path d="M4.9274 13.7558L2.24423 11.0726L0 15L1 16L4.9274 13.7558Z" />
  </g>
  <text x="510" y="606" font-family="Microsoft YaHei, Arial, sans-serif" font-size="16" font-weight="bold" fill="#FFFFFF">零配置 · 开箱即用 · 三步开始你的 AI 内容创作之旅</text>

  
  <rect x="60" y="660" width="1160" height="1" fill="#E5E7EB" />
  <text x="60" y="690" font-family="Microsoft YaHei, Arial, sans-serif" font-size="12" fill="#9CA3AF">PPT Master - 快速开始</text>
  <text x="640" y="690" font-family="Arial, sans-serif" font-size="12" text-anchor="middle" fill="#9CA3AF">09 / 10</text>
  <text x="1220" y="690" font-family="Arial, sans-serif" font-size="12" text-anchor="end" fill="#9CA3AF">github.com/hugohe3/ppt-master</text>
</svg>