<svg xmlns="http://www.w3.org/2000/svg" viewBox="0 0 1280 720" width="1280" height="720">
  <defs>
    
    <filter id="glowGreen" x="-50%" y="-50%" width="200%" height="200%">
      <feGaussianBlur stdDeviation="4" result="blur" />
      <feMerge>
        <feMergeNode in="blur" />
        <feMergeNode in="SourceGraphic" />
      </feMerge>
    </filter>
    <filter id="glowPink" x="-50%" y="-50%" width="200%" height="200%">
      <feGaussianBlur stdDeviation="3" result="blur" />
      <feMerge>
        <feMergeNode in="blur" />
        <feMergeNode in="SourceGraphic" />
      </feMerge>
    </filter>
    <filter id="glowBlue" x="-50%" y="-50%" width="200%" height="200%">
      <feGaussianBlur stdDeviation="3" result="blur" />
      <feMerge>
        <feMergeNode in="blur" />
        <feMergeNode in="SourceGraphic" />
      </feMerge>
    </filter>
  </defs>
  
  
  <rect width="1280" height="720" fill="#0D1117" />
  
  
  <g stroke-opacity="0.1">
    <line x1="0" y1="60" x2="1280" y2="60" stroke="#39FF14" stroke-width="1" />
    <line x1="0" y1="120" x2="1280" y2="120" stroke="#39FF14" stroke-width="1" />
    <line x1="0" y1="180" x2="1280" y2="180" stroke="#39FF14" stroke-width="1" />
    <line x1="0" y1="540" x2="1280" y2="540" stroke="#39FF14" stroke-width="1" />
    <line x1="0" y1="600" x2="1280" y2="600" stroke="#39FF14" stroke-width="1" />
    <line x1="0" y1="660" x2="1280" y2="660" stroke="#39FF14" stroke-width="1" />
    <line x1="60" y1="0" x2="60" y2="720" stroke="#39FF14" stroke-width="1" />
    <line x1="1220" y1="0" x2="1220" y2="720" stroke="#39FF14" stroke-width="1" />
  </g>
  
  
  <rect x="40" y="30" width="1200" height="8" fill="#39FF14" opacity="0.8" />
  <rect x="40" y="42" width="1200" height="4" fill="#39FF14" opacity="0.4" />
  
  
  <rect x="40" y="60" width="16" height="16" fill="#39FF14" />
  <rect x="60" y="60" width="16" height="16" fill="#39FF14" opacity="0.6" />
  <rect x="80" y="60" width="16" height="16" fill="#39FF14" opacity="0.3" />
  
  
  <rect x="1184" y="60" width="16" height="16" fill="#FF2E97" opacity="0.3" />
  <rect x="1204" y="60" width="16" height="16" fill="#FF2E97" opacity="0.6" />
  <rect x="1224" y="60" width="16" height="16" fill="#FF2E97" />
  
  
  <g transform="translate(540, 140)">
    
    <path fill="#161B22" stroke="#39FF14" stroke-width="3" d="M8,20 H192 A8,8 0 0 1 200,28 V92 A8,8 0 0 1 192,100 H8 A8,8 0 0 1 0,92 V28 A8,8 0 0 1 8,20 Z" />
    
    <path fill="#0D1117" stroke="#8B949E" stroke-width="2" d="M29,40 H61 A4,4 0 0 1 65,44 V76 A4,4 0 0 1 61,80 H29 A4,4 0 0 1 25,76 V44 A4,4 0 0 1 29,40 Z" />
    <circle cx="45" cy="60" r="12" fill="#39FF14" filter="url(#glowGreen)" />
    
    <path fill="#0D1117" stroke="#8B949E" stroke-width="2" d="M139,40 H171 A4,4 0 0 1 175,44 V76 A4,4 0 0 1 171,80 H139 A4,4 0 0 1 135,76 V44 A4,4 0 0 1 139,40 Z" />
    <rect x="147" y="52" width="16" height="16" fill="#FF2E97" />
    
    <path fill="#00D4FF" d="M87,55 H113 A2,2 0 0 1 115,57 V63 A2,2 0 0 1 113,65 H87 A2,2 0 0 1 85,63 V57 A2,2 0 0 1 87,55 Z" />
  </g>
  
  
  <text x="640" y="320" text-anchor="middle" font-family="Consolas, Monaco, monospace" font-size="72" font-weight="bold" fill="#39FF14" filter="url(#glowGreen)">
    Introducing...Git!
  </text>
  
  
  <text x="640" y="380" text-anchor="middle" font-family="-apple-system, BlinkMacSystemFont, Segoe UI, Microsoft YaHei, sans-serif" font-size="28" fill="#E6EDF3">
    版本控制入门完全指南
  </text>
  
  
  <rect x="440" y="410" width="400" height="3" fill="#00D4FF" opacity="0.8" />
  
  
  <g transform="translate(340, 460)">
    <rect x="0" y="0" width="140" height="40" fill="#161B22" stroke="#39FF14" stroke-width="2" />
    <text x="70" y="27" text-anchor="middle" font-family="Consolas, monospace" font-size="16" fill="#39FF14">💾 SAVE</text>
  </g>
  <g transform="translate(500, 460)">
    <rect x="0" y="0" width="140" height="40" fill="#161B22" stroke="#00D4FF" stroke-width="2" />
    <text x="70" y="27" text-anchor="middle" font-family="Consolas, monospace" font-size="16" fill="#00D4FF">🔀 BRANCH</text>
  </g>
  <g transform="translate(660, 460)">
    <rect x="0" y="0" width="140" height="40" fill="#161B22" stroke="#FF2E97" stroke-width="2" />
    <text x="70" y="27" text-anchor="middle" font-family="Consolas, monospace" font-size="16" fill="#FF2E97">⏪ REVERT</text>
  </g>
  <g transform="translate(820, 460)">
    <rect x="0" y="0" width="140" height="40" fill="#161B22" stroke="#FFD700" stroke-width="2" />
    <text x="70" y="27" text-anchor="middle" font-family="Consolas, monospace" font-size="16" fill="#FFD700">🤝 COLLAB</text>
  </g>
  
  
  <g>
    <text x="640" y="600" text-anchor="middle" font-family="Consolas, Monaco, monospace" font-size="24" fill="#8B949E">
      ▶ PRESS START TO LEARN ◀
    </text>
  </g>
  
  
  <rect x="40" y="680" width="1200" height="4" fill="#39FF14" opacity="0.4" />
  <rect x="40" y="688" width="1200" height="8" fill="#39FF14" opacity="0.8" />
  
  
  <text x="1200" y="660" text-anchor="end" font-family="Consolas, monospace" font-size="14" fill="#8B949E">
    v1.0 // Git Basics
  </text>
  
  
  <text x="60" y="660" font-family="Consolas, monospace" font-size="14" fill="#8B949E">
    01/10
  </text>
</svg>