<svg xmlns="http://www.w3.org/2000/svg" viewBox="0 0 1280 720">
  
  <rect width="1280" height="720" fill="#F9F6F1" />
  
  
  <text x="40" y="85" font-family="PingFang SC, Microsoft YaHei, sans-serif" font-size="28" font-weight="bold" fill="#2E4A62">研究焦点：法会因由分</text>
  <line x1="40" y1="105" x2="340" y2="105" stroke="#C9A962" stroke-width="3" />
  
  
  <g transform="translate(40, 130)">
    <path fill="#FDF8E8" stroke="#C9A962" stroke-width="2" d="M12,0 H1188 A12,12 0 0 1 1200,12 V128 A12,12 0 0 1 1188,140 H12 A12,12 0 0 1 0,128 V12 A12,12 0 0 1 12,0 Z" />
    <text x="30" y="35" font-family="PingFang SC, Microsoft YaHei, sans-serif" font-size="16" fill="#C9A962" font-weight="bold">原典经文（鸠摩罗什译）</text>
    <text font-family="PingFang SC, Microsoft YaHei, sans-serif" fill="#374151" font-style="italic" font-size="18" x="30" y="75">"如是我闻。一时，佛在舍卫国祇树给孤独园，与大比丘众千二百五十人俱。</text><text font-family="PingFang SC, Microsoft YaHei, sans-serif" fill="#374151" font-style="italic" font-size="18" x="30" y="105">尔时，世尊食时，著衣持钵，入舍卫大城乞食。于其城中，次第乞已，还至本处。</text><text font-family="PingFang SC, Microsoft YaHei, sans-serif" fill="#374151" font-style="italic" font-size="18" x="30" y="135">饭食讫，收衣钵，洗足已，敷座而坐。"</text></g>
  
  
  
  <g transform="translate(40, 295)">
    <path fill="#FFFFFF" stroke="#2E4A62" stroke-width="2" d="M12,0 H368 A12,12 0 0 1 380,12 V288 A12,12 0 0 1 368,300 H12 A12,12 0 0 1 0,288 V12 A12,12 0 0 1 12,0 Z" />
    <path fill="#2E4A62" d="M12,0 H368 A12,12 0 0 1 380,12 V38 A12,12 0 0 1 368,50 H12 A12,12 0 0 1 0,38 V12 A12,12 0 0 1 12,0 Z" />
    <rect x="0" y="40" width="380" height="10" fill="#2E4A62" />
    
  <g transform="translate(20.0, 12.0) scale(1.625)" fill="#FFFFFF">
    <path d="M7 0H2V16H14V7H7V0Z" />
    <path d="M9 0V5H14L9 0Z" />
  </g>
    <text x="55" y="33" font-family="PingFang SC, Microsoft YaHei, sans-serif" font-size="18" font-weight="bold" fill="#FFFFFF">文本层面</text>
    
    <text font-family="PingFang SC, Microsoft YaHei, sans-serif" fill="#2E4A62" font-size="16" x="25" y="90" font-weight="bold">• 鸠摩罗什译本</text><text font-family="PingFang SC, Microsoft YaHei, sans-serif" fill="#6B7280" font-size="14" x="35" y="118">后秦弘始年间（约404年）</text><text font-family="PingFang SC, Microsoft YaHei, sans-serif" fill="#2E4A62" font-size="16" x="25" y="158" font-weight="bold">• 三十二分之首</text><text font-family="PingFang SC, Microsoft YaHei, sans-serif" fill="#6B7280" font-size="14" x="35" y="186">相传为昭明太子所立</text><text font-family="PingFang SC, Microsoft YaHei, sans-serif" fill="#2E4A62" font-size="16" x="25" y="226" font-weight="bold">• 六种成就具足</text><text font-family="PingFang SC, Microsoft YaHei, sans-serif" fill="#6B7280" font-size="14" x="35" y="254">信、闻、时、主、处、众</text></g>
  
  
  <g transform="translate(450, 295)">
    <path fill="#FFFFFF" stroke="#5D8C6A" stroke-width="2" d="M12,0 H368 A12,12 0 0 1 380,12 V288 A12,12 0 0 1 368,300 H12 A12,12 0 0 1 0,288 V12 A12,12 0 0 1 12,0 Z" />
    <path fill="#5D8C6A" d="M12,0 H368 A12,12 0 0 1 380,12 V38 A12,12 0 0 1 368,50 H12 A12,12 0 0 1 0,38 V12 A12,12 0 0 1 12,0 Z" />
    <rect x="0" y="40" width="380" height="10" fill="#5D8C6A" />
    
  <g transform="translate(20.0, 12.0) scale(1.625)" fill="#FFFFFF">
    <path d="M1 5V3L8 0L15 3V5L8 8L1 5Z" />
    <path d="M8 16L1 13V11L8 14L15 11V13L8 16Z" />
    <path d="M1 9L8 12L15 9V7L8 10L1 7V9Z" />
  </g>
    <text x="55" y="33" font-family="PingFang SC, Microsoft YaHei, sans-serif" font-size="18" font-weight="bold" fill="#FFFFFF">功能层面</text>
    
    <text font-family="PingFang SC, Microsoft YaHei, sans-serif" fill="#5D8C6A" font-size="16" x="25" y="90" font-weight="bold">• 叙事开端</text><text font-family="PingFang SC, Microsoft YaHei, sans-serif" fill="#6B7280" font-size="14" x="35" y="118">交代时间、地点、人物</text><text font-family="PingFang SC, Microsoft YaHei, sans-serif" fill="#5D8C6A" font-size="16" x="25" y="158" font-weight="bold">• 证信序（通序）</text><text font-family="PingFang SC, Microsoft YaHei, sans-serif" fill="#6B7280" font-size="14" x="35" y="186">证明经典的真实性</text><text font-family="PingFang SC, Microsoft YaHei, sans-serif" fill="#5D8C6A" font-size="16" x="25" y="226" font-weight="bold">• 发起序（别序）</text><text font-family="PingFang SC, Microsoft YaHei, sans-serif" fill="#6B7280" font-size="14" x="35" y="254">引发说法的直接原因</text></g>
  
  
  <g transform="translate(860, 295)">
    <path fill="#FFFFFF" stroke="#C9A962" stroke-width="2" d="M12,0 H368 A12,12 0 0 1 380,12 V288 A12,12 0 0 1 368,300 H12 A12,12 0 0 1 0,288 V12 A12,12 0 0 1 12,0 Z" />
    <path fill="#C9A962" d="M12,0 H368 A12,12 0 0 1 380,12 V38 A12,12 0 0 1 368,50 H12 A12,12 0 0 1 0,38 V12 A12,12 0 0 1 12,0 Z" />
    <rect x="0" y="40" width="380" height="10" fill="#C9A962" />
    
  <g transform="translate(20.0, 12.0) scale(1.625)" fill="#FFFFFF">
    <path fill-rule="evenodd" clip-rule="evenodd" d="M5 11.5V14.5L6.5 16H9.5L11 14.5V11.5L12.2396 10.2604C13.3668 9.13324 14 7.60141 14 6.00736C14 2.69365 11.3137 0 8 0C4.68629 0 2 2.69365 2 6.00736C2 7.60141 2.63324 9.13324 3.76041 10.2604L5 11.5ZM7 9.87398V6H9V9.87398C10.7252 9.42994 12 7.86384 12 6C12 3.79086 10.2091 2 8 2C5.79086 2 4 3.79086 4 6C4 7.86384 5.27477 9.42994 7 9.87398Z" />
  </g>
    <text x="55" y="33" font-family="PingFang SC, Microsoft YaHei, sans-serif" font-size="18" font-weight="bold" fill="#FFFFFF">思想层面</text>
    
    <text font-family="PingFang SC, Microsoft YaHei, sans-serif" fill="#C9A962" font-size="16" x="25" y="90" font-weight="bold">• 道在平常</text><text font-family="PingFang SC, Microsoft YaHei, sans-serif" fill="#6B7280" font-size="14" x="35" y="118">最高真理体现于日常</text><text font-family="PingFang SC, Microsoft YaHei, sans-serif" fill="#C9A962" font-size="16" x="25" y="158" font-weight="bold">• 般若智慧的隐含示范</text><text font-family="PingFang SC, Microsoft YaHei, sans-serif" fill="#6B7280" font-size="14" x="35" y="186">佛陀行为即是无言的教法</text><text font-family="PingFang SC, Microsoft YaHei, sans-serif" fill="#C9A962" font-size="16" x="25" y="226" font-weight="bold">• 日常即修行</text><text font-family="PingFang SC, Microsoft YaHei, sans-serif" fill="#6B7280" font-size="14" x="35" y="254">行住坐卧皆可证道</text></g>
  
  
  <g transform="translate(40, 615)">
    <path fill="#E8EBF0" d="M8,0 H1192 A8,8 0 0 1 1200,8 V42 A8,8 0 0 1 1192,50 H8 A8,8 0 0 1 0,42 V8 A8,8 0 0 1 8,0 Z" />
    
  <g transform="translate(20.0, 12.0) scale(1.625)" fill="#8B9A9A">
    <path fill-rule="evenodd" clip-rule="evenodd" d="M16 8C16 12.4183 12.4183 16 8 16C3.58172 16 0 12.4183 0 8C0 3.58172 3.58172 0 8 0C12.4183 0 16 3.58172 16 8ZM7 8H6V6H9V11H10V13H7V8ZM9 5V3H7V5H9Z" />
  </g>
    <text x="60" y="32" font-family="PingFang SC, Microsoft YaHei, sans-serif" font-size="15" fill="#6B7280">说明：三十二分法相传为梁代昭明太子萧统所立，并非鸠摩罗什译本原有，早期译本多不分品。</text>
  </g>
  
  
  <text x="40" y="695" font-family="PingFang SC, Microsoft YaHei, sans-serif" font-size="14" fill="#8B9A9A">第一部分：引言</text>
  <text x="1240" y="695" font-family="PingFang SC, Microsoft YaHei, sans-serif" font-size="14" fill="#8B9A9A" text-anchor="end">4 / 15</text>
</svg>