<svg xmlns="http://www.w3.org/2000/svg" viewBox="0 0 1280 720" width="1280" height="720">
  <defs>
    <linearGradient id="cardGradient1" x1="0%" y1="0%" x2="0%" y2="100%">
      <stop offset="0%" style="stop-color:#FFFFFF" />
      <stop offset="100%" style="stop-color:#F8FAFC" />
    </linearGradient>
    <filter id="cardShadow" x="-20%" y="-20%" width="140%" height="150%">
      <feGaussianBlur in="SourceAlpha" stdDeviation="8" result="blur" />
      <feOffset in="blur" dx="0" dy="4" result="offsetBlur" />
      <feFlood flood-color="#000000" flood-opacity="0.08" result="shadowColor" />
      <feComposite in="shadowColor" in2="offsetBlur" operator="in" result="shadow" />
      <feMerge>
        <feMergeNode in="shadow" />
        <feMergeNode in="SourceGraphic" />
      </feMerge>
    </filter>
  </defs>
  
  
  <rect width="1280" height="720" fill="#FFFFFF" />
  
  
  <rect x="0" y="0" width="1280" height="6" fill="#D97757" />
  
  
  <text x="60" y="65" font-family="Arial, sans-serif" font-size="14" font-weight="500" fill="#D97757" letter-spacing="1">
    EXECUTIVE SUMMARY
  </text>
  
  
  <text x="60" y="105" font-family="Arial, sans-serif" font-size="28" font-weight="bold" fill="#1A1A2E">
    成功的 Agent 实现不依赖复杂框架，
  </text>
  <text x="60" y="140" font-family="Arial, sans-serif" font-size="28" font-weight="bold" fill="#1A1A2E">
    而是简单、可组合的模式
  </text>
  
  
  
  
  <g filter="url(#cardShadow)">
    <path fill="url(#cardGradient1)" stroke="#E2E8F0" stroke-width="1" d="M72,180 H408 A12,12 0 0 1 420,192 V588 A12,12 0 0 1 408,600 H72 A12,12 0 0 1 60,588 V192 A12,12 0 0 1 72,180 Z" />
  </g>
  
  <path fill="#10B981" d="M72,180 H408 A12,3 0 0 1 420,183 V183 A12,3 0 0 1 408,186 H72 A12,3 0 0 1 60,183 V183 A12,3 0 0 1 72,180 Z" />
  <rect x="60" y="180" width="360" height="6" fill="#10B981" />
  <path fill="#10B981" d="M72,180 H408 A12,6 0 0 1 420,186 V186 A12,6 0 0 1 408,192 H72 A12,6 0 0 1 60,186 V186 A12,6 0 0 1 72,180 Z" />
  
  
  <circle cx="130" cy="250" r="35" fill="#10B981" fill-opacity="0.1" />
  
  <g transform="translate(112.0, 232.0) scale(2.25)" fill="#10B981">
    <path fill-rule="evenodd" clip-rule="evenodd" d="M5 11.5V14.5L6.5 16H9.5L11 14.5V11.5L12.2396 10.2604C13.3668 9.13324 14 7.60141 14 6.00736C14 2.69365 11.3137 0 8 0C4.68629 0 2 2.69365 2 6.00736C2 7.60141 2.63324 9.13324 3.76041 10.2604L5 11.5ZM7 9.87398V6H9V9.87398C10.7252 9.42994 12 7.86384 12 6C12 3.79086 10.2091 2 8 2C5.79086 2 4 3.79086 4 6C4 7.86384 5.27477 9.42994 7 9.87398Z" />
  </g>
  
  <text x="90" y="320" font-family="Arial, sans-serif" font-size="22" font-weight="bold" fill="#1A1A2E">
    简单优先
  </text>
  <text x="90" y="345" font-family="Arial, sans-serif" font-size="16" font-weight="600" fill="#64748B">
    Start Simple
  </text>
  
  <text font-family="Arial, sans-serif" font-size="16" fill="#1A1A2E" x="90" y="390">先寻找最简单的解决方案，</text><text font-family="Arial, sans-serif" font-size="16" fill="#1A1A2E" x="90" y="418">只在必要时增加复杂性。</text><text font-family="Arial, sans-serif" font-size="15" fill="#64748B" x="90" y="468">许多应用只需优化单一 LLM</text><text font-family="Arial, sans-serif" font-size="15" fill="#64748B" x="90" y="492">调用 + 检索即可满足需求。</text><path fill="#10B981" fill-opacity="0.1" d="M104,545 H156 A14,14 0 0 1 170,559 V559 A14,14 0 0 1 156,573 H104 A14,14 0 0 1 90,559 V559 A14,14 0 0 1 104,545 Z" />
  <text x="130" y="564" font-family="Arial, sans-serif" font-size="12" font-weight="600" fill="#10B981" text-anchor="middle">
    核心原则
  </text>
  
  
  <g filter="url(#cardShadow)">
    <path fill="url(#cardGradient1)" stroke="#E2E8F0" stroke-width="1" d="M472,180 H808 A12,12 0 0 1 820,192 V588 A12,12 0 0 1 808,600 H472 A12,12 0 0 1 460,588 V192 A12,12 0 0 1 472,180 Z" />
  </g>
  <rect x="460" y="180" width="360" height="6" fill="#4A90D9" />
  <path fill="#4A90D9" d="M472,180 H808 A12,6 0 0 1 820,186 V186 A12,6 0 0 1 808,192 H472 A12,6 0 0 1 460,186 V186 A12,6 0 0 1 472,180 Z" />
  
  <circle cx="530" cy="250" r="35" fill="#4A90D9" fill-opacity="0.1" />
  
  <g transform="translate(512.0, 232.0) scale(2.25)" fill="#4A90D9">
    <path d="M1 5V3L8 0L15 3V5L8 8L1 5Z" />
    <path d="M8 16L1 13V11L8 14L15 11V13L8 16Z" />
    <path d="M1 9L8 12L15 9V7L8 10L1 7V9Z" />
  </g>
  
  <text x="490" y="320" font-family="Arial, sans-serif" font-size="22" font-weight="bold" fill="#1A1A2E">
    Workflow vs Agent
  </text>
  <text x="490" y="345" font-family="Arial, sans-serif" font-size="16" font-weight="600" fill="#64748B">
    Two Architectures
  </text>
  
  <text font-family="Arial, sans-serif" font-size="16" fill="#1A1A2E" x="490" y="390" font-weight="600">Workflows:</text><text font-family="Arial, sans-serif" font-size="16" fill="#1A1A2E" x="490" y="416">预定义代码路径编排</text><text font-family="Arial, sans-serif" font-size="16" fill="#1A1A2E" x="490" y="456" font-weight="600">Agents:</text><text font-family="Arial, sans-serif" font-size="16" fill="#1A1A2E" x="490" y="482">LLM 动态自主决策</text><text font-family="Arial, sans-serif" font-size="15" fill="#64748B" x="490" y="522">根据任务特性选择架构，</text><text font-family="Arial, sans-serif" font-size="15" fill="#64748B" x="490" y="546">而非一味追求"智能"。</text><path fill="#4A90D9" fill-opacity="0.1" d="M504,545 H556 A14,14 0 0 1 570,559 V559 A14,14 0 0 1 556,573 H504 A14,14 0 0 1 490,559 V559 A14,14 0 0 1 504,545 Z" />
  <text x="530" y="564" font-family="Arial, sans-serif" font-size="12" font-weight="600" fill="#4A90D9" text-anchor="middle">
    架构选择
  </text>
  
  
  <g filter="url(#cardShadow)">
    <path fill="url(#cardGradient1)" stroke="#E2E8F0" stroke-width="1" d="M872,180 H1208 A12,12 0 0 1 1220,192 V588 A12,12 0 0 1 1208,600 H872 A12,12 0 0 1 860,588 V192 A12,12 0 0 1 872,180 Z" />
  </g>
  <rect x="860" y="180" width="360" height="6" fill="#D97757" />
  <path fill="#D97757" d="M872,180 H1208 A12,6 0 0 1 1220,186 V186 A12,6 0 0 1 1208,192 H872 A12,6 0 0 1 860,186 V186 A12,6 0 0 1 872,180 Z" />
  
  <circle cx="930" cy="250" r="35" fill="#D97757" fill-opacity="0.1" />
  
  <g transform="translate(912.0, 232.0) scale(2.25)" fill="#D97757">
    <path fill-rule="evenodd" clip-rule="evenodd" d="M6.50001 0H9.50001L10.0939 2.37548C10.7276 2.6115 11.3107 2.95155 11.8223 3.37488L14.1782 2.70096L15.6782 5.29904L13.9173 7.00166C13.9717 7.32634 14 7.65987 14 8C14 8.34013 13.9717 8.67366 13.9173 8.99834L15.6782 10.701L14.1782 13.299L11.8223 12.6251C11.3107 13.0484 10.7276 13.3885 10.0939 13.6245L9.50001 16H6.50001L5.90614 13.6245C5.27242 13.3885 4.68934 13.0484 4.17768 12.6251L1.82181 13.299L0.321808 10.701L2.08269 8.99834C2.02831 8.67366 2.00001 8.34013 2.00001 8C2.00001 7.65987 2.02831 7.32634 2.08269 7.00166L0.321808 5.29904L1.82181 2.70096L4.17768 3.37488C4.68934 2.95155 5.27241 2.6115 5.90614 2.37548L6.50001 0ZM8.00001 10C9.10458 10 10 9.10457 10 8C10 6.89543 9.10458 6 8.00001 6C6.89544 6 6.00001 6.89543 6.00001 8C6.00001 9.10457 6.89544 10 8.00001 10Z" />
  </g>
  
  <text x="890" y="320" font-family="Arial, sans-serif" font-size="22" font-weight="bold" fill="#1A1A2E">
    工具设计关键
  </text>
  <text x="890" y="345" font-family="Arial, sans-serif" font-size="16" font-weight="600" fill="#64748B">
    Agent-Computer Interface
  </text>
  
  <text font-family="Arial, sans-serif" font-size="16" fill="#1A1A2E" x="890" y="390">ACI（代理-计算机接口）</text><text font-family="Arial, sans-serif" font-size="16" fill="#1A1A2E" x="890" y="418">与 HCI 同等重要。</text><text font-family="Arial, sans-serif" font-size="15" fill="#64748B" x="890" y="468">"我们在工具优化上花的</text><text font-family="Arial, sans-serif" font-size="15" fill="#64748B" x="890" y="492">时间比整体 prompt 更多"</text><path fill="#D97757" fill-opacity="0.1" d="M904,545 H956 A14,14 0 0 1 970,559 V559 A14,14 0 0 1 956,573 H904 A14,14 0 0 1 890,559 V559 A14,14 0 0 1 904,545 Z" />
  <text x="930" y="564" font-family="Arial, sans-serif" font-size="12" font-weight="600" fill="#D97757" text-anchor="middle">
    关键洞察
  </text>
  
  
  <text x="640" y="680" font-family="Arial, sans-serif" font-size="14" fill="#64748B" text-anchor="middle">
    2 / 15
  </text>
  
</svg>