<svg xmlns="http://www.w3.org/2000/svg" viewBox="0 0 1280 720" width="1280" height="720">
  <defs>
<filter id="boxShadow2" x="-20%" y="-20%" width="140%" height="150%">
      <feGaussianBlur in="SourceAlpha" stdDeviation="4" result="blur" />
      <feOffset in="blur" dx="0" dy="2" result="offsetBlur" />
      <feFlood flood-color="#000000" flood-opacity="0.1" result="shadowColor" />
      <feComposite in="shadowColor" in2="offsetBlur" operator="in" result="shadow" />
      <feMerge>
        <feMergeNode in="shadow" />
        <feMergeNode in="SourceGraphic" />
      </feMerge>
    </filter>
  </defs>
  
  
  <rect width="1280" height="720" fill="#FFFFFF" />
  
  
  <rect x="0" y="0" width="1280" height="6" fill="#10B981" />
  
  
  <path fill="#10B981" fill-opacity="0.1" d="M74,40 H176 A14,14 0 0 1 190,54 V54 A14,14 0 0 1 176,68 H74 A14,14 0 0 1 60,54 V54 A14,14 0 0 1 74,40 Z" />
  <text x="125" y="59" font-family="Arial, sans-serif" font-size="12" font-weight="600" fill="#10B981" text-anchor="middle">
    WORKFLOW 2/5
  </text>
  
  
  <text x="60" y="110" font-family="Arial, sans-serif" font-size="32" font-weight="bold" fill="#1A1A2E">
    Routing：路由分发
  </text>
  <text x="60" y="140" font-family="Arial, sans-serif" font-size="17" fill="#64748B">
    对输入分类，导向专门的后续任务处理
  </text>
  
  
  <g transform="translate(640, 190)">
    
    <path fill="#64748B" d="M-47,-55 H47 A8,8 0 0 1 55,-47 V-23 A8,8 0 0 1 47,-15 H-47 A8,8 0 0 1 -55,-23 V-47 A8,8 0 0 1 -47,-55 Z" />
    <text x="0" y="-28" font-family="Arial, sans-serif" font-size="14" font-weight="bold" fill="#FFFFFF" text-anchor="middle">
      Input
    </text>
    
    
    <line x1="0" y1="-15" x2="0" y2="10" stroke="#64748B" stroke-width="2" />
    <polygon points="0,18 -5,10 5,10" fill="#64748B" />
    
    
    <path fill="#10B981" filter="url(#boxShadow2)" d="M-60,22 H60 A10,10 0 0 1 70,32 V62 A10,10 0 0 1 60,72 H-60 A10,10 0 0 1 -70,62 V32 A10,10 0 0 1 -60,22 Z" />
    <text x="0" y="48" font-family="Arial, sans-serif" font-size="14" font-weight="bold" fill="#FFFFFF" text-anchor="middle">
      Classifier
    </text>
    <text x="0" y="64" font-family="Arial, sans-serif" font-size="11" fill="#FFFFFF" fill-opacity="0.8" text-anchor="middle">
      LLM / 传统模型
    </text>
    
    
    <g stroke="#64748B" stroke-width="2" fill="none">
      <path d="M-35,72 L-35,95 L-180,95 L-180,120" />
      <path d="M0,72 L0,120" />
      <path d="M35,72 L35,95 L180,95 L180,120" />
    </g>
    
    
    <polygon points="-180,128 -185,120 -175,120" fill="#64748B" />
    <polygon points="0,128 -5,120 5,120" fill="#64748B" />
    <polygon points="180,128 175,120 185,120" fill="#64748B" />
    
    
    <path fill="#4A90D9" filter="url(#boxShadow2)" d="M-240,132 H-120 A10,10 0 0 1 -110,142 V202 A10,10 0 0 1 -120,212 H-240 A10,10 0 0 1 -250,202 V142 A10,10 0 0 1 -240,132 Z" />
    <text x="-180" y="160" font-family="Arial, sans-serif" font-size="14" font-weight="bold" fill="#FFFFFF" text-anchor="middle">
      专业流程 A
    </text>
    <text x="-180" y="180" font-family="Arial, sans-serif" font-size="12" fill="#FFFFFF" fill-opacity="0.8" text-anchor="middle">
      常规问题
    </text>
    <text x="-180" y="198" font-family="Arial, sans-serif" font-size="11" fill="#FFFFFF" fill-opacity="0.6" text-anchor="middle">
      Haiku (成本低)
    </text>
    
    
    <path fill="#D97757" filter="url(#boxShadow2)" d="M-60,132 H60 A10,10 0 0 1 70,142 V202 A10,10 0 0 1 60,212 H-60 A10,10 0 0 1 -70,202 V142 A10,10 0 0 1 -60,132 Z" />
    <text x="0" y="160" font-family="Arial, sans-serif" font-size="14" font-weight="bold" fill="#FFFFFF" text-anchor="middle">
      专业流程 B
    </text>
    <text x="0" y="180" font-family="Arial, sans-serif" font-size="12" fill="#FFFFFF" fill-opacity="0.8" text-anchor="middle">
      退款请求
    </text>
    <text x="0" y="198" font-family="Arial, sans-serif" font-size="11" fill="#FFFFFF" fill-opacity="0.6" text-anchor="middle">
      专用工具链
    </text>
    
    
    <path fill="#8B5CF6" filter="url(#boxShadow2)" d="M120,132 H240 A10,10 0 0 1 250,142 V202 A10,10 0 0 1 240,212 H120 A10,10 0 0 1 110,202 V142 A10,10 0 0 1 120,132 Z" />
    <text x="180" y="160" font-family="Arial, sans-serif" font-size="14" font-weight="bold" fill="#FFFFFF" text-anchor="middle">
      专业流程 C
    </text>
    <text x="180" y="180" font-family="Arial, sans-serif" font-size="12" fill="#FFFFFF" fill-opacity="0.8" text-anchor="middle">
      技术支持
    </text>
    <text x="180" y="198" font-family="Arial, sans-serif" font-size="11" fill="#FFFFFF" fill-opacity="0.6" text-anchor="middle">
      Sonnet (能力强)
    </text>
  </g>
  
  
  <g transform="translate(60, 450)">
    
    <path fill="#F0FDF4" stroke="#10B981" stroke-width="1" d="M12,0 H358 A12,12 0 0 1 370,12 V148 A12,12 0 0 1 358,160 H12 A12,12 0 0 1 0,148 V12 A12,12 0 0 1 12,0 Z" />
    
    <text x="20" y="32" font-family="Arial, sans-serif" font-size="15" font-weight="bold" fill="#10B981">
      ✓ 核心优势
    </text>
    
    <text x="20" y="62" font-family="Arial, sans-serif" font-size="14" fill="#1A1A2E">
      • 关注点分离 (Separation of Concerns)
    </text>
    <text x="20" y="88" font-family="Arial, sans-serif" font-size="14" fill="#1A1A2E">
      • 针对不同类别优化专用 prompt
    </text>
    <text x="20" y="114" font-family="Arial, sans-serif" font-size="14" fill="#1A1A2E">
      • 避免"一刀切"导致的性能损失
    </text>
  </g>
  
  
  <g transform="translate(455, 450)">
    <path fill="#F8FAFC" stroke="#E2E8F0" stroke-width="1" d="M12,0 H358 A12,12 0 0 1 370,12 V148 A12,12 0 0 1 358,160 H12 A12,12 0 0 1 0,148 V12 A12,12 0 0 1 12,0 Z" />
    
    <text x="20" y="32" font-family="Arial, sans-serif" font-size="15" font-weight="bold" fill="#4A90D9">
      📋 适用条件
    </text>
    
    <text x="20" y="62" font-family="Arial, sans-serif" font-size="14" fill="#1A1A2E">
      • 任务有明确的分类类别
    </text>
    <text x="20" y="88" font-family="Arial, sans-serif" font-size="14" fill="#1A1A2E">
      • 不同类别适合分别处理
    </text>
    <text x="20" y="114" font-family="Arial, sans-serif" font-size="14" fill="#1A1A2E">
      • 分类可被准确执行
    </text>
  </g>
  
  
  <g transform="translate(850, 450)">
    <path fill="#FEF7F5" stroke="#D97757" stroke-width="1" d="M12,0 H358 A12,12 0 0 1 370,12 V148 A12,12 0 0 1 358,160 H12 A12,12 0 0 1 0,148 V12 A12,12 0 0 1 12,0 Z" />
    
    <text x="20" y="32" font-family="Arial, sans-serif" font-size="15" font-weight="bold" fill="#D97757">
      💡 典型场景
    </text>
    
    <text x="20" y="62" font-family="Arial, sans-serif" font-size="14" fill="#1A1A2E">
      • 客服工单自动分流
    </text>
    <text x="20" y="88" font-family="Arial, sans-serif" font-size="14" fill="#1A1A2E">
      • 模型分流：简单→小模型
    </text>
    <text x="35" y="110" font-family="Arial, sans-serif" font-size="13" fill="#64748B">
      复杂/罕见→大模型
    </text>
    <text x="20" y="136" font-family="Arial, sans-serif" font-size="14" fill="#1A1A2E">
      • 多语言检测与处理
    </text>
  </g>
  
  
  <text x="640" y="680" font-family="Arial, sans-serif" font-size="14" fill="#64748B" text-anchor="middle">
    8 / 15
  </text>
  
</svg>