<svg xmlns="http://www.w3.org/2000/svg" viewBox="0 0 1280 720" width="1280" height="720">
  <defs>
    <filter id="boxShadow4" x="-20%" y="-20%" width="140%" height="150%">
      <feGaussianBlur in="SourceAlpha" stdDeviation="4" result="blur" />
      <feOffset in="blur" dx="0" dy="2" result="offsetBlur" />
      <feFlood flood-color="#000000" flood-opacity="0.1" result="shadowColor" />
      <feComposite in="shadowColor" in2="offsetBlur" operator="in" result="shadow" />
      <feMerge>
        <feMergeNode in="shadow" />
        <feMergeNode in="SourceGraphic" />
      </feMerge>
    </filter>
</defs>
  
  
  <rect width="1280" height="720" fill="#FFFFFF" />
  
  
  <rect x="0" y="0" width="1280" height="6" fill="#F59E0B" />
  
  
  <path fill="#F59E0B" fill-opacity="0.1" d="M74,40 H186 A14,14 0 0 1 200,54 V54 A14,14 0 0 1 186,68 H74 A14,14 0 0 1 60,54 V54 A14,14 0 0 1 74,40 Z" />
  <text x="130" y="59" font-family="Arial, sans-serif" font-size="12" font-weight="600" fill="#F59E0B" text-anchor="middle">
    WORKFLOW 4 &amp; 5
  </text>
  
  
  <text x="60" y="105" font-family="Arial, sans-serif" font-size="30" font-weight="bold" fill="#1A1A2E">
    Orchestrator-Workers &amp; Evaluator-Optimizer
  </text>
  <text x="60" y="135" font-family="Arial, sans-serif" font-size="17" fill="#64748B">
    动态编排与迭代优化 — 两种高级模式
  </text>
  
  
  <g transform="translate(60, 160)">
    <path fill="#F8FAFC" stroke="#E2E8F0" stroke-width="1" d="M16,0 H544 A16,16 0 0 1 560,16 V224 A16,16 0 0 1 544,240 H16 A16,16 0 0 1 0,224 V16 A16,16 0 0 1 16,0 Z" />
    
    
    <path fill="#4A90D9" d="M16,0 H544 A16,16 0 0 1 560,16 V29 A16,16 0 0 1 544,45 H16 A16,16 0 0 1 0,29 V16 A16,16 0 0 1 16,0 Z" />
    <rect x="0" y="22" width="560" height="23" fill="#4A90D9" />
    <text x="20" y="30" font-family="Arial, sans-serif" font-size="16" font-weight="bold" fill="#FFFFFF">
      Orchestrator-Workers 编排者-工作者
    </text>
    
    
    <g transform="translate(130, 130)">
      
      <path fill="#4A90D9" d="M-47,-55 H47 A8,8 0 0 1 55,-47 V-23 A8,8 0 0 1 47,-15 H-47 A8,8 0 0 1 -55,-23 V-47 A8,8 0 0 1 -47,-55 Z" />
      <text x="0" y="-28" font-family="Arial, sans-serif" font-size="13" font-weight="bold" fill="#FFFFFF" text-anchor="middle">
        Orchestrator
      </text>
      
      
      <line x1="0" y1="-15" x2="0" y2="0" stroke="#64748B" stroke-width="2" />
      <line x1="-80" y1="0" x2="80" y2="0" stroke="#64748B" stroke-width="2" />
      <line x1="-80" y1="0" x2="-80" y2="15" stroke="#64748B" stroke-width="2" />
      <line x1="0" y1="0" x2="0" y2="15" stroke="#64748B" stroke-width="2" />
      <line x1="80" y1="0" x2="80" y2="15" stroke="#64748B" stroke-width="2" />
      
      
      <path fill="#10B981" d="M-100,18 H-60 A5,5 0 0 1 -55,23 V48 A5,5 0 0 1 -60,53 H-100 A5,5 0 0 1 -105,48 V23 A5,5 0 0 1 -100,18 Z" />
      <text x="-80" y="41" font-family="Arial, sans-serif" font-size="10" font-weight="bold" fill="#FFFFFF" text-anchor="middle">
        Worker 1
      </text>
      
      <path fill="#10B981" d="M-20,18 H20 A5,5 0 0 1 25,23 V48 A5,5 0 0 1 20,53 H-20 A5,5 0 0 1 -25,48 V23 A5,5 0 0 1 -20,18 Z" />
      <text x="0" y="41" font-family="Arial, sans-serif" font-size="10" font-weight="bold" fill="#FFFFFF" text-anchor="middle">
        Worker 2
      </text>
      
      <path fill="#10B981" d="M60,18 H100 A5,5 0 0 1 105,23 V48 A5,5 0 0 1 100,53 H60 A5,5 0 0 1 55,48 V23 A5,5 0 0 1 60,18 Z" />
      <text x="80" y="41" font-family="Arial, sans-serif" font-size="10" font-weight="bold" fill="#FFFFFF" text-anchor="middle">
        Worker N
      </text>
    </g>
    
    
    <g transform="translate(290, 70)">
      <text x="0" y="0" font-family="Arial, sans-serif" font-size="14" font-weight="600" fill="#1A1A2E">
        动态分解任务
      </text>
      <text x="0" y="22" font-family="Arial, sans-serif" font-size="13" fill="#64748B">
        子任务不预定义，由编排者决定
      </text>
      <text x="0" y="55" font-family="Arial, sans-serif" font-size="13" fill="#4A90D9">
        适用：多文件代码修改
      </text>
      <text x="0" y="75" font-family="Arial, sans-serif" font-size="13" fill="#4A90D9">
        多源信息搜索与分析
      </text>
    </g>
  </g>
  
  
  <g transform="translate(660, 160)">
    <path fill="#FEF7F5" stroke="#D97757" stroke-width="1" d="M16,0 H544 A16,16 0 0 1 560,16 V224 A16,16 0 0 1 544,240 H16 A16,16 0 0 1 0,224 V16 A16,16 0 0 1 16,0 Z" />
    
    
    <path fill="#D97757" d="M16,0 H544 A16,16 0 0 1 560,16 V29 A16,16 0 0 1 544,45 H16 A16,16 0 0 1 0,29 V16 A16,16 0 0 1 16,0 Z" />
    <rect x="0" y="22" width="560" height="23" fill="#D97757" />
    <text x="20" y="30" font-family="Arial, sans-serif" font-size="16" font-weight="bold" fill="#FFFFFF">
      Evaluator-Optimizer 评估者-优化者
    </text>
    
    
    <g transform="translate(130, 140)">
      
      <path fill="#D97757" d="M-82,-35 H-13 A8,8 0 0 1 -5,-27 V2 A8,8 0 0 1 -13,10 H-82 A8,8 0 0 1 -90,2 V-27 A8,8 0 0 1 -82,-35 Z" />
      <text x="-47" y="-12" font-family="Arial, sans-serif" font-size="11" font-weight="bold" fill="#FFFFFF" text-anchor="middle">
        Generator
      </text>
      <text x="-47" y="2" font-family="Arial, sans-serif" font-size="9" fill="#FFFFFF" fill-opacity="0.8" text-anchor="middle">
        生成响应
      </text>
      
      
      <line x1="-5" y1="-12" x2="20" y2="-12" stroke="#64748B" stroke-width="2" />
      <polygon points="28,-12 20,-16 20,-8" fill="#64748B" />
      
      
      <path fill="#8B5CF6" d="M38,-35 H107 A8,8 0 0 1 115,-27 V2 A8,8 0 0 1 107,10 H38 A8,8 0 0 1 30,2 V-27 A8,8 0 0 1 38,-35 Z" />
      <text x="72" y="-12" font-family="Arial, sans-serif" font-size="11" font-weight="bold" fill="#FFFFFF" text-anchor="middle">
        Evaluator
      </text>
      <text x="72" y="2" font-family="Arial, sans-serif" font-size="9" fill="#FFFFFF" fill-opacity="0.8" text-anchor="middle">
        提供反馈
      </text>
      
      
      <path d="M30,15 Q-10,35 -47,15" stroke="#D97757" stroke-width="2" fill="none" stroke-dasharray="4,2" />
      <polygon points="-52,12 -45,18 -45,8" fill="#D97757" />
      <text x="-10" y="50" font-family="Arial, sans-serif" font-size="10" fill="#D97757" text-anchor="middle">
        迭代循环
      </text>
    </g>
    
    
    <g transform="translate(290, 70)">
      <text x="0" y="0" font-family="Arial, sans-serif" font-size="14" font-weight="600" fill="#1A1A2E">
        迭代改进
      </text>
      <text x="0" y="22" font-family="Arial, sans-serif" font-size="13" fill="#64748B">
        有明确评估标准，迭代有价值
      </text>
      <text x="0" y="55" font-family="Arial, sans-serif" font-size="13" fill="#D97757">
        适用：文学翻译、复杂搜索
      </text>
      <text x="0" y="75" font-family="Arial, sans-serif" font-size="13" fill="#D97757">
        内容细化与润色
      </text>
    </g>
  </g>
  
  
  <g transform="translate(60, 430)">
    <path fill="#F8FAFC" stroke="#E2E8F0" stroke-width="1" d="M12,0 H1148 A12,12 0 0 1 1160,12 V168 A12,12 0 0 1 1148,180 H12 A12,12 0 0 1 0,168 V12 A12,12 0 0 1 12,0 Z" />
    
    
    <path fill="#1A1A2E" d="M12,0 H1148 A12,12 0 0 1 1160,12 V33 A12,12 0 0 1 1148,45 H12 A12,12 0 0 1 0,33 V12 A12,12 0 0 1 12,0 Z" />
    <rect x="0" y="22" width="1160" height="23" fill="#1A1A2E" />
    
    
    <text x="130" y="30" font-family="Arial, sans-serif" font-size="14" font-weight="bold" fill="#FFFFFF" text-anchor="middle">
      模式
    </text>
    <text x="480" y="30" font-family="Arial, sans-serif" font-size="14" font-weight="bold" fill="#FFFFFF" text-anchor="middle">
      特点
    </text>
    <text x="930" y="30" font-family="Arial, sans-serif" font-size="14" font-weight="bold" fill="#FFFFFF" text-anchor="middle">
      典型场景
    </text>
    
    
    <line x1="260" y1="45" x2="260" y2="180" stroke="#E2E8F0" stroke-width="1" />
    <line x1="700" y1="45" x2="700" y2="180" stroke="#E2E8F0" stroke-width="1" />
    
    
    <text x="130" y="85" font-family="Arial, sans-serif" font-size="14" font-weight="600" fill="#4A90D9" text-anchor="middle">
      Orchestrator-Workers
    </text>
    <text x="280" y="85" font-family="Arial, sans-serif" font-size="13" fill="#1A1A2E">
      子任务由编排者动态决定，灵活性高
    </text>
    <text x="720" y="85" font-family="Arial, sans-serif" font-size="13" fill="#64748B">
      多文件代码重构、多源搜索
    </text>
    
    
    <line x1="20" y1="115" x2="1140" y2="115" stroke="#E2E8F0" stroke-width="1" />
    
    
    <text x="130" y="150" font-family="Arial, sans-serif" font-size="14" font-weight="600" fill="#D97757" text-anchor="middle">
      Evaluator-Optimizer
    </text>
    <text x="280" y="150" font-family="Arial, sans-serif" font-size="13" fill="#1A1A2E">
      生成→评估→迭代，直到满足标准
    </text>
    <text x="720" y="150" font-family="Arial, sans-serif" font-size="13" fill="#64748B">
      文学翻译、内容润色、复杂搜索
    </text>
  </g>
  
  
  <text x="640" y="680" font-family="Arial, sans-serif" font-size="14" fill="#64748B" text-anchor="middle">
    10 / 15
  </text>
  
</svg>