<svg xmlns="http://www.w3.org/2000/svg" viewBox="0 0 1280 720" width="1280" height="720">
  <defs>
    <linearGradient id="topGrad" x1="0%" y1="0%" x2="100%" y2="0%">
      <stop offset="0%" stop-color="#002A50"/>
      <stop offset="100%" stop-color="#0070C0"/>
    </linearGradient>
    <filter id="shadow" x="-10%" y="-10%" width="130%" height="140%">
      <feGaussianBlur in="SourceAlpha" stdDeviation="8"/>
      <feOffset dx="0" dy="5" result="ob"/>
      <feFlood flood-color="#000000" flood-opacity="0.11" result="sc"/>
      <feComposite in="sc" in2="ob" operator="in" result="s"/>
      <feMerge><feMergeNode in="s"/><feMergeNode in="SourceGraphic"/></feMerge>
    </filter>
    <filter id="deepShadow" x="-10%" y="-10%" width="130%" height="140%">
      <feGaussianBlur in="SourceAlpha" stdDeviation="14"/>
      <feOffset dx="0" dy="7" result="ob"/>
      <feFlood flood-color="#000000" flood-opacity="0.14" result="sc"/>
      <feComposite in="sc" in2="ob" operator="in" result="s"/>
      <feMerge><feMergeNode in="s"/><feMergeNode in="SourceGraphic"/></feMerge>
    </filter>
    <filter id="bubbleShadow" x="-30%" y="-30%" width="160%" height="160%">
      <feGaussianBlur in="SourceAlpha" stdDeviation="6"/>
      <feOffset dx="0" dy="3" result="ob"/>
      <feFlood flood-color="#000000" flood-opacity="0.20" result="sc"/>
      <feComposite in="sc" in2="ob" operator="in" result="s"/>
      <feMerge><feMergeNode in="s"/><feMergeNode in="SourceGraphic"/></feMerge>
    </filter>
  </defs>
  <rect width="1280" height="720" fill="#FFFFFF"/>
  <rect x="0" y="0" width="1280" height="6" fill="url(#topGrad)"/>
  <text x="40" y="44" font-family="Arial, sans-serif" font-size="19" font-weight="bold" fill="#0F172A">Four-phase delivery doubles repeat purchase rate and nearly doubles service satisfaction — both within 12 months</text>
  <rect x="40" y="56" width="1200" height="44" rx="2" fill="#18345E"/>
  <rect x="40" y="56" width="5" height="44" rx="2" fill="#38BDF8"/>
  <text x="57" y="83" font-family="Arial, sans-serif" font-size="13" font-weight="bold" fill="#F8FAFC">Q1 quick wins build momentum; Q2 service reform delivers the retention breakthrough; Q3 financial incentives activate repurchase; Q4 locks in gains</text>

  <!-- PHASE 1: QUICK WINS -->
  <rect x="40" y="117" width="286" height="186" rx="4" fill="#FFFFFF" filter="url(#shadow)"/>
  <rect x="40" y="117" width="286" height="50" rx="4" fill="#0C2744"/>
  <rect x="40" y="143" width="286" height="24" rx="0" fill="#0C2744"/>
  <text x="183" y="144" font-family="Arial, sans-serif" font-size="14" font-weight="bold" fill="#FFFFFF" text-anchor="middle">Q1 2026  —  QUICK WINS</text>
  <text x="183" y="162" font-family="Arial, sans-serif" font-size="11" fill="#FFFFFF" fill-opacity="0.78" text-anchor="middle">Months 1–3  ·  Launch phase</text>
  <!-- icon: file -->
  <g transform="translate(68.0, 178.0) scale(1.5)" fill="#0C2744">
    <path d="M7 0H2V16H14V7H7V0Z"/>
    <path d="M9 0V5H14L9 0Z"/>
  </g>
  <text x="102" y="195" font-family="Arial, sans-serif" font-size="13" fill="#1E293B" font-weight="bold">Customer Magazine</text>
  <text x="102" y="211" font-family="Arial, sans-serif" font-size="11" fill="#475569">Brand publication launch</text>
  <!-- icon: circle-checkmark -->
  <g transform="translate(68.0, 222.0) scale(1.5)" fill="#0C2744">
    <path fill-rule="evenodd" clip-rule="evenodd" d="M8 16C12.4183 16 16 12.4183 16 8C16 3.58172 12.4183 0 8 0C3.58172 0 0 3.58172 0 8C0 12.4183 3.58172 16 8 16ZM12.7071 5.70711L11.2929 4.29289L6.5 9.08579L4.70711 7.29289L3.29289 8.70711L6.5 11.9142L12.7071 5.70711Z"/>
  </g>
  <text x="102" y="239" font-family="Arial, sans-serif" font-size="13" fill="#1E293B" font-weight="bold">Survey Incentive</text>
  <text x="102" y="255" font-family="Arial, sans-serif" font-size="11" fill="#475569">Branded-pen questionnaire</text>
  <text x="56" y="286" font-family="Arial, sans-serif" font-size="10" fill="#94A3B8">Cost: Low  ·  Momentum-building</text>


  <!-- PHASE 2: SERVICE REFORM -->
  <rect x="338" y="117" width="286" height="186" rx="4" fill="#FFFFFF" filter="url(#shadow)"/>
  <rect x="338" y="117" width="286" height="50" rx="4" fill="#005587"/>
  <rect x="338" y="143" width="286" height="24" rx="0" fill="#005587"/>
  <text x="481" y="144" font-family="Arial, sans-serif" font-size="14" font-weight="bold" fill="#FFFFFF" text-anchor="middle">Q2 2026  —  SERVICE REFORM</text>
  <text x="481" y="162" font-family="Arial, sans-serif" font-size="11" fill="#FFFFFF" fill-opacity="0.78" text-anchor="middle">Months 4–6  ·  Core delivery</text>
  <!-- icon: cog -->
  <g transform="translate(366.0, 178.0) scale(1.5)" fill="#005587">
    <path fill-rule="evenodd" clip-rule="evenodd" d="M6.50001 0H9.50001L10.0939 2.37548C10.7276 2.6115 11.3107 2.95155 11.8223 3.37488L14.1782 2.70096L15.6782 5.29904L13.9173 7.00166C13.9717 7.32634 14 7.65987 14 8C14 8.34013 13.9717 8.67366 13.9173 8.99834L15.6782 10.701L14.1782 13.299L11.8223 12.6251C11.3107 13.0484 10.7276 13.3885 10.0939 13.6245L9.50001 16H6.50001L5.90614 13.6245C5.27242 13.3885 4.68934 13.0484 4.17768 12.6251L1.82181 13.299L0.321808 10.701L2.08269 8.99834C2.02831 8.67366 2.00001 8.34013 2.00001 8C2.00001 7.65987 2.02831 7.32634 2.08269 7.00166L0.321808 5.29904L1.82181 2.70096L4.17768 3.37488C4.68934 2.95155 5.27241 2.6115 5.90614 2.37548L6.50001 0ZM8.00001 10C9.10458 10 10 9.10457 10 8C10 6.89543 9.10458 6 8.00001 6C6.89544 6 6.00001 6.89543 6.00001 8C6.00001 9.10457 6.89544 10 8.00001 10Z"/>
  </g>
  <text x="400" y="195" font-family="Arial, sans-serif" font-size="13" fill="#1E293B" font-weight="bold">Free After-Sales Service</text>
  <text x="400" y="211" font-family="Arial, sans-serif" font-size="11" fill="#475569">3-year free plan rollout</text>
  <!-- icon: users -->
  <g transform="translate(366.0, 222.0) scale(1.5)" fill="#005587">
    <path d="M8 3.5C8 4.88071 6.88071 6 5.5 6C4.11929 6 3 4.88071 3 3.5C3 2.11929 4.11929 1 5.5 1C6.88071 1 8 2.11929 8 3.5Z"/>
    <path d="M3 8C1.34315 8 0 9.34315 0 11V15H8V8H3Z"/>
    <path d="M13 8H10V15H16V11C16 9.34315 14.6569 8 13 8Z"/>
    <path d="M12 6C13.1046 6 14 5.10457 14 4C14 2.89543 13.1046 2 12 2C10.8954 2 10 2.89543 10 4C10 5.10457 10.8954 6 12 6Z"/>
  </g>
  <text x="400" y="239" font-family="Arial, sans-serif" font-size="13" fill="#1E293B" font-weight="bold">Staff Training</text>
  <text x="400" y="255" font-family="Arial, sans-serif" font-size="11" fill="#475569">Relationship skills upgrade</text>
  <text x="354" y="286" font-family="Arial, sans-serif" font-size="10" fill="#94A3B8">Cost: Medium-High  ·  Highest impact</text>


  <!-- PHASE 3: INCENTIVE LAUNCH -->
  <rect x="636" y="117" width="286" height="186" rx="4" fill="#FFFFFF" filter="url(#shadow)"/>
  <rect x="636" y="117" width="286" height="50" rx="4" fill="#0076A8"/>
  <rect x="636" y="143" width="286" height="24" rx="0" fill="#0076A8"/>
  <text x="779" y="144" font-family="Arial, sans-serif" font-size="14" font-weight="bold" fill="#FFFFFF" text-anchor="middle">Q3 2026  —  INCENTIVE LAUNCH</text>
  <text x="779" y="162" font-family="Arial, sans-serif" font-size="11" fill="#FFFFFF" fill-opacity="0.78" text-anchor="middle">Months 7–9  ·  Financial activation</text>
  <!-- icon: dollar -->
  <g transform="translate(664.0, 178.0) scale(1.5)" fill="#0076A8">
    <path fill-rule="evenodd" clip-rule="evenodd" d="M6.21606 15L6.10495 16H8.11726L8.22837 15H10.003C12.2105 15 14 13.2105 14 11.003C14 9.12963 12.6989 7.5076 10.8701 7.1012L9.14852 6.71864L9.45059 4H13V1H9.78393L9.89504 0H7.88273L7.77162 1H5.99699C3.78951 1 2 2.78951 2 4.99699C2 6.87037 3.30115 8.4924 5.12992 8.8988L6.85147 9.28136L6.54939 12H3V15H6.21606ZM8.5617 12H10.003C10.5536 12 11 11.5536 11 11.003C11 10.5357 10.6754 10.1311 10.2193 10.0298L8.81528 9.71776L8.5617 12ZM7.1847 6.28223L7.43828 4H5.99699C5.44637 4 5 4.44637 5 4.99699C5 5.46427 5.32455 5.86887 5.78071 5.97023L7.1847 6.28223Z"/>
  </g>
  <text x="698" y="195" font-family="Arial, sans-serif" font-size="13" fill="#1E293B" font-weight="bold">20% Loyalty Discount</text>
  <text x="698" y="211" font-family="Arial, sans-serif" font-size="11" fill="#475569">Activate for returning buyers</text>
  <!-- icon: arrow-trend-up -->
  <g transform="translate(664.0, 222.0) scale(1.5)" fill="#0076A8">
    <path d="M10 3L9.00001 4L11.2929 6.29289L8.50001 9.08579L5.50001 6.08579L0.292908 11.2929L1.70712 12.7071L5.50001 8.91421L8.50001 11.9142L12.7071 7.70711L15 10L16 9L16 3H10Z"/>
  </g>
  <text x="698" y="239" font-family="Arial, sans-serif" font-size="13" fill="#1E293B" font-weight="bold">Enhanced Trade-in</text>
  <text x="698" y="255" font-family="Arial, sans-serif" font-size="11" fill="#475569">Generous trade-in offer</text>
  <text x="652" y="286" font-family="Arial, sans-serif" font-size="10" fill="#94A3B8">Cost: Medium  ·  Direct retention</text>


  <!-- PHASE 4: EVALUATION -->
  <rect x="934" y="117" width="286" height="186" rx="4" fill="#FFFFFF" filter="url(#shadow)"/>
  <rect x="934" y="117" width="286" height="50" rx="4" fill="#4A90A4"/>
  <rect x="934" y="143" width="286" height="24" rx="0" fill="#4A90A4"/>
  <text x="1077" y="144" font-family="Arial, sans-serif" font-size="14" font-weight="bold" fill="#FFFFFF" text-anchor="middle">Q4 2026  —  EVALUATION</text>
  <text x="1077" y="162" font-family="Arial, sans-serif" font-size="11" fill="#FFFFFF" fill-opacity="0.78" text-anchor="middle">Months 10–12  ·  Lock-in gains</text>
  <!-- icon: chart-bar -->
  <g transform="translate(962.0, 178.0) scale(1.5)" fill="#4A90A4">
    <path d="M16 1H12V15H16V1Z"/>
    <path d="M6 5H10V15H6V5Z"/>
    <path d="M0 9H4V15H0V9Z"/>
  </g>
  <text x="996" y="195" font-family="Arial, sans-serif" font-size="13" fill="#1E293B" font-weight="bold">KPI Review</text>
  <text x="996" y="211" font-family="Arial, sans-serif" font-size="11" fill="#475569">Full metric assessment</text>
  <!-- icon: target -->
  <g transform="translate(962.0, 222.0) scale(1.5)" fill="#4A90A4">
    <path fill-rule="evenodd" clip-rule="evenodd" d="M8 4C5.79086 4 4 5.79086 4 8C4 10.2091 5.79086 12 8 12C10.2091 12 12 10.2091 12 8C12 5.79086 10.2091 4 8 4ZM6 8C6 6.89543 6.89543 6 8 6C9.10457 6 10 6.89543 10 8C10 9.10457 9.10457 10 8 10C6.89543 10 6 9.10457 6 8Z"/>
    <path fill-rule="evenodd" clip-rule="evenodd" d="M8 0C3.58172 0 0 3.58172 0 8C0 12.4183 3.58172 16 8 16C12.4183 16 16 12.4183 16 8C16 3.58172 12.4183 0 8 0ZM2 8C2 4.68629 4.68629 2 8 2C11.3137 2 14 4.68629 14 8C14 11.3137 11.3137 14 8 14C4.68629 14 2 11.3137 2 8Z"/>
  </g>
  <text x="996" y="239" font-family="Arial, sans-serif" font-size="13" fill="#1E293B" font-weight="bold">Programme Optimise</text>
  <text x="996" y="255" font-family="Arial, sans-serif" font-size="11" fill="#475569">Based on franchise data</text>
  <text x="950" y="286" font-family="Arial, sans-serif" font-size="10" fill="#94A3B8">Cost: Low  ·  Year-2 planning</text>


  <!-- Timeline arrow -->
  <rect x="40" y="315" width="1190" height="8" rx="4" fill="#E2E8F0"/>
  <rect x="40" y="315" width="1190" height="8" rx="4" fill="url(#topGrad)" fill-opacity="0.7"/>
  <circle cx="189" cy="319" r="9" fill="#FFFFFF" stroke="#0C2744" stroke-width="2.5"/>
  <circle cx="487" cy="319" r="9" fill="#FFFFFF" stroke="#005587" stroke-width="2.5"/>
  <circle cx="785" cy="319" r="9" fill="#FFFFFF" stroke="#0076A8" stroke-width="2.5"/>
  <circle cx="1083" cy="319" r="9" fill="#F59E0B" stroke="#F59E0B" stroke-width="2"/>
  <text x="1230" y="323" font-family="Arial, sans-serif" font-size="11" fill="#94A3B8" font-weight="bold">END</text>


  <rect x="40" y="342" width="380" height="140" rx="4" fill="#FFFFFF" filter="url(#shadow)"/>
  <rect x="40" y="342" width="380" height="5" rx="4" fill="#DC2626"/>
  <text x="60" y="372" font-family="Arial, sans-serif" font-size="10" fill="#94A3B8" letter-spacing="1">REPEAT PURCHASE RATE</text>
  <text x="152" y="420" font-family="Arial, sans-serif" font-size="44" font-weight="bold" fill="#DC2626" text-anchor="middle">2×</text>
  <line x1="264" y1="368" x2="264" y2="470" stroke="#E2E8F0" stroke-width="1"/>
  <text x="284" y="392" font-family="Arial, sans-serif" font-size="12" fill="#94A3B8">15% → 30%</text>
  <text x="284" y="410" font-family="Arial, sans-serif" font-size="12" fill="#94A3B8">by Q4 2026</text>
  <text x="284" y="440" font-family="Arial, sans-serif" font-size="12" fill="#DC2626" font-weight="bold">Primary success metric</text>
  <text x="284" y="458" font-family="Arial, sans-serif" font-size="11" fill="#94A3B8">Driven by: init. 01, 02, 03</text>


  <rect x="450" y="342" width="380" height="140" rx="4" fill="#FFFFFF" filter="url(#shadow)"/>
  <rect x="450" y="342" width="380" height="5" rx="4" fill="#F59E0B"/>
  <text x="470" y="372" font-family="Arial, sans-serif" font-size="10" fill="#94A3B8" letter-spacing="1">SERVICE SATISFACTION</text>
  <text x="562" y="420" font-family="Arial, sans-serif" font-size="44" font-weight="bold" fill="#F59E0B" text-anchor="middle">+82%</text>
  <line x1="674" y1="368" x2="674" y2="470" stroke="#E2E8F0" stroke-width="1"/>
  <text x="694" y="392" font-family="Arial, sans-serif" font-size="12" fill="#94A3B8">33% → 60% Good+</text>
  <text x="694" y="410" font-family="Arial, sans-serif" font-size="12" fill="#94A3B8">by Q3–Q4 2026</text>
  <text x="694" y="440" font-family="Arial, sans-serif" font-size="12" fill="#F59E0B" font-weight="bold">Key retention driver</text>
  <text x="694" y="458" font-family="Arial, sans-serif" font-size="11" fill="#94A3B8">Driven by: init. 01 + staff</text>


  <rect x="860" y="342" width="380" height="140" rx="4" fill="#FFFFFF" filter="url(#shadow)"/>
  <rect x="860" y="342" width="380" height="5" rx="4" fill="#4A90A4"/>
  <text x="880" y="372" font-family="Arial, sans-serif" font-size="10" fill="#94A3B8" letter-spacing="1">SURVEY RETURN RATE</text>
  <text x="972" y="420" font-family="Arial, sans-serif" font-size="44" font-weight="bold" fill="#4A90A4" text-anchor="middle">+75%</text>
  <line x1="1084" y1="368" x2="1084" y2="470" stroke="#E2E8F0" stroke-width="1"/>
  <text x="1104" y="392" font-family="Arial, sans-serif" font-size="12" fill="#94A3B8">40% → 70%</text>
  <text x="1104" y="410" font-family="Arial, sans-serif" font-size="12" fill="#94A3B8">by Q2 2026</text>
  <text x="1104" y="440" font-family="Arial, sans-serif" font-size="12" fill="#4A90A4" font-weight="bold">Enables better profiling</text>
  <text x="1104" y="458" font-family="Arial, sans-serif" font-size="11" fill="#94A3B8">Driven by: init. 05</text>


  <rect x="40" y="502" width="1200" height="110" rx="4" fill="#18345E"/>
  <text x="640" y="532" font-family="Arial, sans-serif" font-size="14" font-weight="bold" fill="#FFFFFF" text-anchor="middle">GOVERNANCE  ·  ACCOUNTABILITY  ·  COST STRUCTURE</text>
  <line x1="240" y1="544" x2="1040" y2="544" stroke="#FFFFFF" stroke-width="0.5" stroke-opacity="0.25"/>
  <text x="320" y="568" font-family="Arial, sans-serif" font-size="12" fill="#FFFFFF" fill-opacity="0.80" text-anchor="middle">Accountable party</text>
  <text x="320" y="590" font-family="Arial, sans-serif" font-size="13" font-weight="bold" fill="#FFFFFF" text-anchor="middle">Customer Services Dept</text>
  <text x="320" y="606" font-family="Arial, sans-serif" font-size="11" fill="#FFFFFF" fill-opacity="0.60" text-anchor="middle">Head Office, Paris</text>
  <text x="640" y="568" font-family="Arial, sans-serif" font-size="12" fill="#FFFFFF" fill-opacity="0.80" text-anchor="middle">Cost sharing model</text>
  <text x="640" y="590" font-family="Arial, sans-serif" font-size="13" font-weight="bold" fill="#F59E0B" text-anchor="middle">50% Head Office  +  50% Franchises</text>
  <text x="640" y="606" font-family="Arial, sans-serif" font-size="11" fill="#FFFFFF" fill-opacity="0.60" text-anchor="middle">Available to all European franchise locations</text>
  <text x="960" y="568" font-family="Arial, sans-serif" font-size="12" fill="#FFFFFF" fill-opacity="0.80" text-anchor="middle">Programme design principle</text>
  <text x="960" y="590" font-family="Arial, sans-serif" font-size="13" font-weight="bold" fill="#4ADE80" text-anchor="middle">Low incremental cost</text>
  <text x="960" y="606" font-family="Arial, sans-serif" font-size="11" fill="#FFFFFF" fill-opacity="0.60" text-anchor="middle">High ROI through retention gains</text>

  <rect x="0" y="694" width="1280" height="26" fill="#F8FAFC"/>
  <line x1="0" y1="694" x2="1280" y2="694" stroke="#E2E8F0" stroke-width="1"/>
  <text x="40" y="711" font-family="Arial, sans-serif" font-size="10" fill="#94A3B8">Source: Kimsoong Customer Loyalty Programme Brief  |  Timeline subject to franchise readiness assessment</text>
  <text x="640" y="711" font-family="Arial, sans-serif" font-size="10" fill="#94A3B8" text-anchor="middle">STRICTLY CONFIDENTIAL  |  NOT FOR DISTRIBUTION</text>
  <text x="1240" y="711" font-family="Arial, sans-serif" font-size="10" fill="#94A3B8" text-anchor="end">8</text>
</svg>